<mxfile host="app.diagrams.net" modified="2023-04-01T14:49:56.526Z" agent="Mozilla/5.0 (Windows NT 10.0; Win64; x64) AppleWebKit/537.36 (KHTML, like Gecko) Chrome/111.0.0.0 Safari/537.36 OPR/97.0.0.0" etag="D7f61qnkgehUklEkXp2i" version="21.1.2" type="device">
  <diagram name="Page-1" id="iXeg-zfbAlBCnqqb55lr">
    <mxGraphModel dx="1837" dy="550" grid="1" gridSize="10" guides="1" tooltips="1" connect="1" arrows="1" fold="1" page="1" pageScale="1" pageWidth="827" pageHeight="1169" math="0" shadow="0">
      <root>
        <mxCell id="0" />
        <mxCell id="1" parent="0" />
        <mxCell id="zP7d5f_9tEzzHWjP8LjR-1" value="Поиск товара" style="rounded=1;whiteSpace=wrap;html=1;fillColor=#dae8fc;strokeColor=#6c8ebf;" parent="1" vertex="1">
          <mxGeometry x="-670" y="30" width="120" height="60" as="geometry" />
        </mxCell>
        <mxCell id="zP7d5f_9tEzzHWjP8LjR-2" value="Знакомство с товаром" style="rounded=1;whiteSpace=wrap;html=1;fillColor=#dae8fc;strokeColor=#6c8ebf;" parent="1" vertex="1">
          <mxGeometry x="-510" y="30" width="120" height="60" as="geometry" />
        </mxCell>
        <mxCell id="zP7d5f_9tEzzHWjP8LjR-3" value="" style="endArrow=none;html=1;rounded=0;" parent="1" edge="1">
          <mxGeometry width="50" height="50" relative="1" as="geometry">
            <mxPoint x="-530" y="700" as="sourcePoint" />
            <mxPoint x="-530" y="20" as="targetPoint" />
          </mxGeometry>
        </mxCell>
        <mxCell id="zP7d5f_9tEzzHWjP8LjR-4" value="" style="endArrow=none;html=1;rounded=0;" parent="1" edge="1">
          <mxGeometry width="50" height="50" relative="1" as="geometry">
            <mxPoint x="-690" y="120" as="sourcePoint" />
            <mxPoint x="-40" y="120" as="targetPoint" />
          </mxGeometry>
        </mxCell>
        <mxCell id="zP7d5f_9tEzzHWjP8LjR-5" value="Найти товар в каталоге" style="rounded=1;whiteSpace=wrap;html=1;fillColor=#fff2cc;strokeColor=#d6b656;" parent="1" vertex="1">
          <mxGeometry x="-660" y="140" width="100" height="50" as="geometry" />
        </mxCell>
        <mxCell id="zP7d5f_9tEzzHWjP8LjR-6" value="Фильтр по типу" style="rounded=1;whiteSpace=wrap;html=1;fillColor=#f5f5f5;fontColor=#333333;strokeColor=#666666;" parent="1" vertex="1">
          <mxGeometry x="-660" y="380" width="100" height="50" as="geometry" />
        </mxCell>
        <mxCell id="zP7d5f_9tEzzHWjP8LjR-7" value="Фильтр по цене" style="rounded=1;whiteSpace=wrap;html=1;fillColor=#f5f5f5;fontColor=#333333;strokeColor=#666666;" parent="1" vertex="1">
          <mxGeometry x="-660" y="450" width="100" height="50" as="geometry" />
        </mxCell>
        <mxCell id="zP7d5f_9tEzzHWjP8LjR-8" value="Фильтр по типу металла" style="rounded=1;whiteSpace=wrap;html=1;fillColor=#f5f5f5;fontColor=#333333;strokeColor=#666666;" parent="1" vertex="1">
          <mxGeometry x="-660" y="550" width="100" height="50" as="geometry" />
        </mxCell>
        <mxCell id="zP7d5f_9tEzzHWjP8LjR-9" value="Посмотреть описание" style="rounded=1;whiteSpace=wrap;html=1;fillColor=#fff2cc;strokeColor=#d6b656;" parent="1" vertex="1">
          <mxGeometry x="-500" y="140" width="100" height="50" as="geometry" />
        </mxCell>
        <mxCell id="zP7d5f_9tEzzHWjP8LjR-10" value="Посмотреть фото" style="rounded=1;whiteSpace=wrap;html=1;fillColor=#fff2cc;strokeColor=#d6b656;" parent="1" vertex="1">
          <mxGeometry x="-500" y="210" width="100" height="50" as="geometry" />
        </mxCell>
        <mxCell id="zP7d5f_9tEzzHWjP8LjR-11" value="Выбрать размер (если доступно)" style="rounded=1;whiteSpace=wrap;html=1;fillColor=#f5f5f5;strokeColor=#666666;fontColor=#333333;" parent="1" vertex="1">
          <mxGeometry x="-500" y="380" width="100" height="50" as="geometry" />
        </mxCell>
        <mxCell id="zP7d5f_9tEzzHWjP8LjR-12" value="Посмотреть похожие товары" style="rounded=1;whiteSpace=wrap;html=1;fillColor=#f5f5f5;strokeColor=#666666;fontColor=#333333;" parent="1" vertex="1">
          <mxGeometry x="-500" y="550" width="100" height="50" as="geometry" />
        </mxCell>
        <mxCell id="zP7d5f_9tEzzHWjP8LjR-13" value="Посмотреть акционные товары" style="rounded=1;whiteSpace=wrap;html=1;fillColor=#f5f5f5;strokeColor=#666666;fontColor=#333333;" parent="1" vertex="1">
          <mxGeometry x="-500" y="620" width="100" height="50" as="geometry" />
        </mxCell>
        <mxCell id="zP7d5f_9tEzzHWjP8LjR-14" value="Сравнить товары" style="rounded=1;whiteSpace=wrap;html=1;fillColor=#f5f5f5;strokeColor=#666666;fontColor=#333333;" parent="1" vertex="1">
          <mxGeometry x="-500" y="450" width="100" height="50" as="geometry" />
        </mxCell>
        <mxCell id="zP7d5f_9tEzzHWjP8LjR-15" value="" style="endArrow=none;html=1;rounded=0;" parent="1" edge="1">
          <mxGeometry width="50" height="50" relative="1" as="geometry">
            <mxPoint x="-370" y="700" as="sourcePoint" />
            <mxPoint x="-370" y="20" as="targetPoint" />
          </mxGeometry>
        </mxCell>
        <mxCell id="zP7d5f_9tEzzHWjP8LjR-16" value="Посмотреть цену" style="rounded=1;whiteSpace=wrap;html=1;fillColor=#fff2cc;strokeColor=#d6b656;" parent="1" vertex="1">
          <mxGeometry x="-500" y="280" width="100" height="50" as="geometry" />
        </mxCell>
        <mxCell id="zP7d5f_9tEzzHWjP8LjR-17" value="Управление корзиной" style="rounded=1;whiteSpace=wrap;html=1;fillColor=#dae8fc;strokeColor=#6c8ebf;" parent="1" vertex="1">
          <mxGeometry x="-350" y="30" width="120" height="60" as="geometry" />
        </mxCell>
        <mxCell id="zP7d5f_9tEzzHWjP8LjR-18" value="Добавить в корзину" style="rounded=1;whiteSpace=wrap;html=1;fillColor=#fff2cc;strokeColor=#d6b656;" parent="1" vertex="1">
          <mxGeometry x="-340" y="140" width="100" height="50" as="geometry" />
        </mxCell>
        <mxCell id="zP7d5f_9tEzzHWjP8LjR-19" value="Удалить из корзины" style="rounded=1;whiteSpace=wrap;html=1;fillColor=#f5f5f5;strokeColor=#666666;fontColor=#333333;" parent="1" vertex="1">
          <mxGeometry x="-340" y="210" width="100" height="50" as="geometry" />
        </mxCell>
        <mxCell id="zP7d5f_9tEzzHWjP8LjR-20" value="Изменить кол-во товара" style="rounded=1;whiteSpace=wrap;html=1;fillColor=#f5f5f5;strokeColor=#666666;fontColor=#333333;" parent="1" vertex="1">
          <mxGeometry x="-340" y="380" width="100" height="50" as="geometry" />
        </mxCell>
        <mxCell id="zP7d5f_9tEzzHWjP8LjR-21" value="" style="endArrow=none;html=1;rounded=0;" parent="1" edge="1">
          <mxGeometry width="50" height="50" relative="1" as="geometry">
            <mxPoint x="-210" y="700" as="sourcePoint" />
            <mxPoint x="-210" y="30" as="targetPoint" />
          </mxGeometry>
        </mxCell>
        <mxCell id="zP7d5f_9tEzzHWjP8LjR-22" value="Покупка товара" style="rounded=1;whiteSpace=wrap;html=1;fillColor=#dae8fc;strokeColor=#6c8ebf;" parent="1" vertex="1">
          <mxGeometry x="-180" y="30" width="120" height="60" as="geometry" />
        </mxCell>
        <mxCell id="zP7d5f_9tEzzHWjP8LjR-23" value="Указать адрес доставки" style="rounded=1;whiteSpace=wrap;html=1;fillColor=#fff2cc;strokeColor=#d6b656;" parent="1" vertex="1">
          <mxGeometry x="-170" y="140" width="100" height="50" as="geometry" />
        </mxCell>
        <mxCell id="zP7d5f_9tEzzHWjP8LjR-24" value="Ввести данные карты" style="rounded=1;whiteSpace=wrap;html=1;fillColor=#fff2cc;strokeColor=#d6b656;" parent="1" vertex="1">
          <mxGeometry x="-170" y="210" width="100" height="50" as="geometry" />
        </mxCell>
        <mxCell id="zP7d5f_9tEzzHWjP8LjR-25" value="Подтвердить покупку" style="rounded=1;whiteSpace=wrap;html=1;fillColor=#fff2cc;strokeColor=#d6b656;" parent="1" vertex="1">
          <mxGeometry x="-170" y="280" width="100" height="50" as="geometry" />
        </mxCell>
        <mxCell id="zP7d5f_9tEzzHWjP8LjR-26" value="Выбрать вариант оплаты" style="rounded=1;whiteSpace=wrap;html=1;fillColor=#f5f5f5;strokeColor=#666666;fontColor=#333333;" parent="1" vertex="1">
          <mxGeometry x="-170" y="380" width="100" height="50" as="geometry" />
        </mxCell>
        <mxCell id="zP7d5f_9tEzzHWjP8LjR-27" value="Ввести промокод" style="rounded=1;whiteSpace=wrap;html=1;fillColor=#f5f5f5;strokeColor=#666666;fontColor=#333333;" parent="1" vertex="1">
          <mxGeometry x="-170" y="540" width="100" height="50" as="geometry" />
        </mxCell>
        <mxCell id="zP7d5f_9tEzzHWjP8LjR-31" value="&lt;font style=&quot;font-size: 14px;&quot;&gt;&lt;b&gt;Сделать обязательно&lt;/b&gt;&lt;/font&gt;" style="text;html=1;strokeColor=none;fillColor=none;align=center;verticalAlign=middle;whiteSpace=wrap;rounded=0;" parent="1" vertex="1">
          <mxGeometry x="-800" y="220" width="90" height="30" as="geometry" />
        </mxCell>
        <mxCell id="zP7d5f_9tEzzHWjP8LjR-32" value="&lt;font style=&quot;font-size: 14px;&quot;&gt;&lt;b&gt;Хорошо бы сделать&lt;/b&gt;&lt;/font&gt;" style="text;html=1;strokeColor=none;fillColor=none;align=center;verticalAlign=middle;whiteSpace=wrap;rounded=0;" parent="1" vertex="1">
          <mxGeometry x="-795" y="430" width="100" height="30" as="geometry" />
        </mxCell>
        <mxCell id="zP7d5f_9tEzzHWjP8LjR-33" value="&lt;font style=&quot;font-size: 14px;&quot;&gt;&lt;b&gt;Можно будет сделать&lt;/b&gt;&lt;/font&gt;" style="text;html=1;strokeColor=none;fillColor=none;align=center;verticalAlign=middle;whiteSpace=wrap;rounded=0;" parent="1" vertex="1">
          <mxGeometry x="-805" y="559" width="110" height="50" as="geometry" />
        </mxCell>
        <mxCell id="zP7d5f_9tEzzHWjP8LjR-36" value="" style="endArrow=none;html=1;rounded=0;" parent="1" edge="1">
          <mxGeometry width="50" height="50" relative="1" as="geometry">
            <mxPoint x="-800" y="350" as="sourcePoint" />
            <mxPoint x="-30" y="350" as="targetPoint" />
          </mxGeometry>
        </mxCell>
        <mxCell id="zP7d5f_9tEzzHWjP8LjR-37" value="" style="endArrow=none;html=1;rounded=0;" parent="1" edge="1">
          <mxGeometry width="50" height="50" relative="1" as="geometry">
            <mxPoint x="-800" y="520" as="sourcePoint" />
            <mxPoint x="-30" y="520" as="targetPoint" />
          </mxGeometry>
        </mxCell>
        <mxCell id="zP7d5f_9tEzzHWjP8LjR-39" value="" style="endArrow=none;html=1;rounded=0;edgeStyle=orthogonalEdgeStyle;strokeColor=#d51010;" parent="1" edge="1">
          <mxGeometry width="50" height="50" relative="1" as="geometry">
            <mxPoint x="-680" y="200" as="sourcePoint" />
            <mxPoint x="-40" y="340" as="targetPoint" />
            <Array as="points">
              <mxPoint x="-510" y="200" />
              <mxPoint x="-510" y="340" />
              <mxPoint x="-350" y="340" />
              <mxPoint x="-350" y="280" />
              <mxPoint x="-220" y="280" />
            </Array>
          </mxGeometry>
        </mxCell>
        <mxCell id="zP7d5f_9tEzzHWjP8LjR-41" value="" style="endArrow=none;html=1;rounded=0;edgeStyle=orthogonalEdgeStyle;strokeColor=#0b1bf4;" parent="1" edge="1">
          <mxGeometry width="50" height="50" relative="1" as="geometry">
            <mxPoint x="-680" y="440" as="sourcePoint" />
            <mxPoint x="-40" y="440" as="targetPoint" />
            <Array as="points">
              <mxPoint x="-680" y="510" />
              <mxPoint x="-510" y="510" />
              <mxPoint x="-510" y="440" />
              <mxPoint x="-70" y="440" />
            </Array>
          </mxGeometry>
        </mxCell>
        <mxCell id="zP7d5f_9tEzzHWjP8LjR-43" value="" style="endArrow=none;html=1;rounded=0;strokeColor=#08fd39;" parent="1" edge="1">
          <mxGeometry width="50" height="50" relative="1" as="geometry">
            <mxPoint x="-680" y="620" as="sourcePoint" />
            <mxPoint x="-40" y="600" as="targetPoint" />
            <Array as="points">
              <mxPoint x="-510" y="620" />
              <mxPoint x="-510" y="680" />
              <mxPoint x="-360" y="680" />
              <mxPoint x="-360" y="600" />
            </Array>
          </mxGeometry>
        </mxCell>
        <mxCell id="zP7d5f_9tEzzHWjP8LjR-44" value="&lt;font style=&quot;font-size: 14px;&quot;&gt;&lt;b&gt;ver.1&lt;/b&gt;&lt;/font&gt;" style="text;html=1;strokeColor=none;fillColor=none;align=center;verticalAlign=middle;whiteSpace=wrap;rounded=0;" parent="1" vertex="1">
          <mxGeometry x="-60" y="210" width="60" height="30" as="geometry" />
        </mxCell>
        <mxCell id="zP7d5f_9tEzzHWjP8LjR-45" value="&lt;font style=&quot;font-size: 14px;&quot;&gt;&lt;b&gt;ver.2&lt;/b&gt;&lt;/font&gt;" style="text;html=1;strokeColor=none;fillColor=none;align=center;verticalAlign=middle;whiteSpace=wrap;rounded=0;" parent="1" vertex="1">
          <mxGeometry x="-60" y="380" width="60" height="30" as="geometry" />
        </mxCell>
        <mxCell id="zP7d5f_9tEzzHWjP8LjR-46" value="&lt;font style=&quot;font-size: 14px;&quot;&gt;&lt;b&gt;ver.3&lt;br&gt;&lt;/b&gt;&lt;/font&gt;" style="text;html=1;strokeColor=none;fillColor=none;align=center;verticalAlign=middle;whiteSpace=wrap;rounded=0;" parent="1" vertex="1">
          <mxGeometry x="-60" y="540" width="60" height="30" as="geometry" />
        </mxCell>
      </root>
    </mxGraphModel>
  </diagram>
</mxfile>
